<svg xmlns="http://www.w3.org/2000/svg" viewBox="0 0 96 96" width="96" height="96" role="img" aria-label="demon-karaku_puppet_clone">
  <defs><linearGradient id="bg" x1="0" y1="0" x2="0" y2="1">
    <stop offset="0" stop-color="#1b1f2a"/><stop offset="1" stop-color="#0d1016"/>
  </linearGradient></defs>
  <rect width="96" height="96" rx="14" fill="url(#bg)"/>
  <path d="M22 24l-8-8 14 3M74 24l8-8-14 3" fill="#332f2a"/>
  <path d="M48 20c15 0 23 11 23 24 0 17-11 32-23 32S25 61 25 44c0-13 8-24 23-24Z" fill="#45403a"/>
  <path d="M33 42c4-4 9-4 13 0M50 42c4-4 9-4 13 0" stroke="#eec44f" stroke-width="4" stroke-linecap="round" fill="none"/>
  <rect x="38" y="58" width="20" height="6" rx="2" fill="#1a1814"/><path d="M44 58v6M52 58v6" stroke="#45403a" stroke-width="1.6"/>
</svg>
