<svg xmlns="http://www.w3.org/2000/svg" viewBox="0 0 96 96" width="96" height="96" role="img" aria-label="demon-hand_demon">
  <defs><linearGradient id="bg" x1="0" y1="0" x2="0" y2="1">
    <stop offset="0" stop-color="#1b1f2a"/><stop offset="1" stop-color="#0d1016"/>
  </linearGradient></defs>
  <rect width="96" height="96" rx="14" fill="url(#bg)"/>
  <path d="M20 24l-8-10 16 5M76 24l8-10-16 5M48 16l-4-10 8 0z" fill="#332833"/>
  <path d="M48 20c15 0 23 11 23 24 0 17-11 32-23 32S25 61 25 44c0-13 8-24 23-24Z" fill="#4a3d4a"/>
  <path d="M33 42c4-4 9-4 13 0M50 42c4-4 9-4 13 0" stroke="#e5484d" stroke-width="4" stroke-linecap="round" fill="none"/>
  <path d="M36 58h24l-4 8H40z" fill="#1a141a"/><path d="M40 58l2 8M48 58v8M56 58l-2 8" stroke="#e5484d" stroke-width="1.6"/>
</svg>
