<svg xmlns="http://www.w3.org/2000/svg" viewBox="0 0 96 96" width="96" height="96" role="img" aria-label="kizuki-muzan">
  <defs><linearGradient id="bg" x1="0" y1="0" x2="0" y2="1">
    <stop offset="0" stop-color="#1b1f2a"/><stop offset="1" stop-color="#0d1016"/>
  </linearGradient></defs>
  <rect width="96" height="96" rx="14" fill="url(#bg)"/>
  <path d="M16 22l-6-16 18 10M80 22l6-16-18 10M48 10l-6-10h12z" fill="#361419"/>
  <path d="M48 20c15 0 23 11 23 24 0 17-11 32-23 32S25 61 25 44c0-13 8-24 23-24Z" fill="#4a1f24"/>
  <path d="M33 42c4-4 9-4 13 0M50 42c4-4 9-4 13 0" stroke="#ff4d52" stroke-width="4" stroke-linecap="round" fill="none"/>
  <path d="M34 56h28l-5 12H39z" fill="#1a0c0e"/><path d="M39 56l2 12M46 56l1 12M53 56l-1 12M59 56l-2 12" stroke="#ff4d52" stroke-width="1.8"/>
</svg>
