<svg xmlns="http://www.w3.org/2000/svg" viewBox="0 0 96 96" width="96" height="96" role="img" aria-label="kizuki-enmu">
  <defs><linearGradient id="bg" x1="0" y1="0" x2="0" y2="1">
    <stop offset="0" stop-color="#1b1f2a"/><stop offset="1" stop-color="#0d1016"/>
  </linearGradient></defs>
  <rect width="96" height="96" rx="14" fill="url(#bg)"/>
  <path d="M22 24c-8-6-8-14-8-14l16 10M74 24c8-6 8-14 8-14l-16 10" fill="#2e2740"/>
  <path d="M48 20c15 0 23 11 23 24 0 17-11 32-23 32S25 61 25 44c0-13 8-24 23-24Z" fill="#3f3550"/>
  <path d="M33 42c4-4 9-4 13 0M50 42c4-4 9-4 13 0" stroke="#c9a2f0" stroke-width="4" stroke-linecap="round" fill="none"/>
  <path d="M36 60c8-6 16-6 24 0" stroke="#c9a2f0" stroke-width="3.5" stroke-linecap="round" fill="none"/><circle cx="48" cy="72" r="2.5" fill="#c9a2f0"/>
</svg>
