<svg xmlns="http://www.w3.org/2000/svg" viewBox="0 0 96 96" width="96" height="96" role="img" aria-label="venue-3">
  <defs><linearGradient id="bg" x1="0" y1="0" x2="0" y2="1">
    <stop offset="0" stop-color="#1d1220"/><stop offset="1" stop-color="#0d0812"/>
  </linearGradient></defs>
  <rect width="96" height="96" rx="14" fill="url(#bg)"/>
  <rect y="76" width="96" height="20" fill="#211526"/>
  <rect x="9" y="20" width="10" height="16" rx="5" fill="#f096b8" fill-opacity="0.55"/>
  <line x1="14" y1="0" x2="14" y2="20" stroke="#4a3050" stroke-width="1.5"/>
  <rect x="29" y="28" width="10" height="16" rx="5" fill="#f096b8" fill-opacity="0.8500000000000001"/>
  <line x1="34" y1="0" x2="34" y2="28" stroke="#4a3050" stroke-width="1.5"/>
  <rect x="49" y="20" width="10" height="16" rx="5" fill="#f096b8" fill-opacity="0.55"/>
  <line x1="54" y1="0" x2="54" y2="20" stroke="#4a3050" stroke-width="1.5"/>
  <rect x="69" y="28" width="10" height="16" rx="5" fill="#f096b8" fill-opacity="0.8500000000000001"/>
  <line x1="74" y1="0" x2="74" y2="28" stroke="#4a3050" stroke-width="1.5"/>
  <rect x="12" y="50" width="72" height="26" rx="4" fill="#33203a"/>
  <rect x="20" y="58" width="12" height="18" fill="#e5514f" fill-opacity=".5"/>
  <rect x="42" y="58" width="12" height="18" fill="#e5514f" fill-opacity=".7"/>
  <rect x="64" y="58" width="12" height="18" fill="#e5514f" fill-opacity=".5"/>
</svg>
